<svg width="301" height="47" viewBox="0 0 301 47" fill="none" xmlns="http://www.w3.org/2000/svg">
<path d="M279.235 46.2153C271.695 46.6659 265.022 45.7803 258.872 41.0334C254.369 37.5882 251.458 32.4626 250.805 26.8301C249.059 12.3366 257.877 1.8568 272.207 0.193815C278.892 -0.549731 286.736 0.808404 292.208 4.92199C296.834 8.38997 299.873 13.5715 300.641 19.302C302.762 34.1962 293.627 44.1757 279.235 46.2153ZM273.804 13.0912C268.185 14.1702 264.511 19.6085 265.606 25.2246C266.702 30.8408 272.15 34.499 277.763 33.3873C283.353 32.2802 286.993 26.8587 285.902 21.2653C284.811 15.6724 279.401 12.0163 273.804 13.0912Z" fill="white"/>
<path d="M1.04043 45.3086C1.06573 41.1505 0.695188 2.05678 1.26856 1.22631C6.3277 1.07001 11.5293 1.19652 16.5957 1.16591C20.7195 1.14061 25.5448 0.966358 29.5747 1.56952C35.2428 2.4914 42.0118 6.0259 43.5675 12.0392C45.6002 19.8954 43.7952 25.7899 37.1661 30.2716C37.6917 31.0069 38.3822 31.8415 38.9589 32.5524C42.3485 36.7313 45.5137 41.0889 48.9421 45.2339L43.5773 45.2319L31.0365 45.2723C28.208 41.6133 25.4008 37.9372 22.6151 34.2452C20.5277 34.1848 18.324 34.2182 16.2268 34.2162C16.2582 37.9192 16.2505 41.6227 16.2036 45.3253C11.1493 45.2576 6.09467 45.2523 1.04043 45.3086ZM16.2121 13.1635L16.2276 23.0724C19.6491 23.1014 24.5768 23.6494 27.2919 21.6665C29.0369 19.6489 29.5241 16.5425 27.4396 14.6542C25.1049 12.5391 19.2896 13.1027 16.2121 13.1635Z" fill="white"/>
<path d="M123.119 12.694C120.268 12.5284 105.856 12.11 103.961 12.8177C103.195 13.1038 102.676 13.4564 102.343 14.2207C102.449 14.7953 102.608 15.2156 103.193 15.4634C109.285 18.0396 116.719 17.9442 121.916 22.5103C126.936 26.9206 126.311 36.3206 121.765 40.9092C118.539 44.1654 113.824 45.3725 109.341 45.3762C94.2391 45.395 79.1143 45.2448 64.014 45.3378C60.28 45.3432 57.3045 45.6578 53.7949 44.2372C47.6046 41.7311 47.4887 38.1954 47.6805 32.2691C47.7596 29.8107 47.7311 26.8475 47.7478 24.3067L47.7217 1.19599C61.5471 0.903797 76.0805 1.1254 89.9606 1.17559C85.3557 4.84354 84.1049 6.82115 83.3589 12.6908C76.5086 12.6059 69.6575 12.6014 62.8073 12.6773L62.8081 17.7062L82.9194 17.7156C82.9418 21.0416 82.9455 24.3675 82.9296 27.6935C76.2433 27.5915 69.3568 27.6764 62.6551 27.6772L62.6265 33.5758L92.987 33.6182C97.0259 33.6186 101.33 33.7566 105.373 33.517C106.377 33.4574 107.365 33.0644 107.922 32.1858C108.135 29.7891 103.966 28.8994 102.078 28.3681C93.8722 26.0591 85.5867 23.937 85.8438 13.5486C85.9943 7.47492 88.8004 4.24608 94.1791 2.06645C98.4959 0.655266 105.991 1.0903 110.794 1.09479L127.03 1.08703C126.923 1.18742 126.819 1.28904 126.715 1.39188C123.213 4.89618 123.146 8.16542 123.119 12.694Z" fill="white"/>
<path d="M120.56 45.224C127.181 40.4709 129.184 34.4087 127.36 26.4023C127.073 25.1442 125.977 23.8195 125.782 22.4324C125.529 20.6359 125.653 18.8526 125.655 17.0447C125.787 12.9144 124.943 8.00463 127.469 4.41096C129.015 2.21174 131.157 1.58736 133.611 1.2013C135.695 0.934411 141.726 1.08174 144.089 1.08949L163.478 1.13397C163.38 4.80477 163.451 8.76043 163.45 12.4529C156.004 12.5839 148.147 12.4471 140.671 12.4337L140.694 17.6671C146.851 17.6667 156.129 17.4014 161.976 17.8715C161.901 21.1199 161.937 24.5202 161.922 27.7808C154.881 27.6853 147.84 27.6747 140.799 27.749L140.755 33.4868L145.798 33.5199L163.726 33.6211L163.701 45.2934L120.56 45.224Z" fill="white"/>
<path d="M166.618 45.2162L166.68 1.17471C171.714 1.06902 176.831 1.12697 181.862 1.1282C190.87 1.13065 203.234 -0.0642517 207.212 10.2662C208.584 13.8309 209.114 17.6964 208.307 21.4615C207.385 25.8146 205.009 28.6219 201.343 30.9966C205.497 35.9263 209.654 39.9012 213.747 45.257L210.589 45.2325L195.468 45.1848C192.823 41.9653 189.316 37.7574 186.541 34.7184C184.897 34.6955 183.186 34.7269 181.536 34.7331C181.556 38.2374 181.529 41.7417 181.454 45.2452C176.61 45.1362 171.481 45.2125 166.618 45.2162ZM181.393 13.169L181.42 23.4195C184.895 23.4709 188.715 23.999 191.54 21.923C193.429 19.8948 194.155 16.8602 191.942 14.6777C189.8 12.5662 184.382 13.127 181.393 13.169Z" fill="white"/>
<path d="M223.071 45.2056C219.747 36.8846 216.588 28.4991 213.594 20.054C211.958 15.4911 210.31 10.2059 208.206 5.8764C207.544 4.51664 204.875 2.38027 203.623 1.21475C208.537 0.913169 216.352 1.08416 221.376 1.19557C222.432 4.60805 224.126 8.97424 225.376 12.3777L231.244 28.4934C234.265 19.3166 237.667 10.272 240.653 1.14456L259.626 1.14986C255.801 3.94979 253.733 5.69603 251.15 9.66719C247.988 15.4597 249.444 16.6076 247.886 21.206C245.189 29.1647 242.185 37.409 239.329 45.3378L223.071 45.2056Z" fill="white"/>
</svg>
