<svg width="34" height="21" viewBox="0 0 34 21" fill="none" xmlns="http://www.w3.org/2000/svg">
<path d="M17 0.785889C10.7844 0.785889 5.94241 4.48946 0 10.5002C5.11518 15.6381 9.41071 20.2145 17 20.2145C24.5817 20.2145 30.1598 14.4162 34 10.6064C30.0688 6.14392 24.4982 0.785889 17 0.785889ZM17 17.4292C13.2509 17.4292 10.2 14.3176 10.2 10.5002C10.2 6.67517 13.2509 3.57116 17 3.57116C20.7491 3.57116 23.8 6.68276 23.8 10.5002C23.8 14.3252 20.7491 17.4292 17 17.4292Z" fill="#D6D3D1"/>
<path d="M17.0004 8.07135C17.0004 7.4718 17.2205 6.92537 17.5772 6.50037C17.3875 6.47001 17.1978 6.45483 17.0004 6.45483C14.8147 6.45483 13.0312 8.26867 13.0312 10.4999C13.0312 12.7312 14.8147 14.545 17.0004 14.545C19.1862 14.545 20.9696 12.7312 20.9696 10.4999C20.9696 10.3254 20.9545 10.1508 20.9393 9.97626C20.5219 10.3026 20.0058 10.4999 19.4366 10.4999C18.0857 10.4999 17.0004 9.41466 17.0004 8.07135Z" fill="#D6D3D1"/>
</svg>
